<svg width="22" height="16" viewBox="0 0 22 16" fill="none" xmlns="http://www.w3.org/2000/svg">
<path d="M20.6 6.5H1.4C0.572 6.5 0.5 7.1705 0.5 8C0.5 8.8295 0.572 9.5 1.4 9.5H20.6C21.428 9.5 21.5 8.8295 21.5 8C21.5 7.1705 21.428 6.5 20.6 6.5ZM20.6 12.5H1.4C0.572 12.5 0.5 13.1705 0.5 14C0.5 14.8295 0.572 15.5 1.4 15.5H20.6C21.428 15.5 21.5 14.8295 21.5 14C21.5 13.1705 21.428 12.5 20.6 12.5ZM1.4 3.5H20.6C21.428 3.5 21.5 2.8295 21.5 2C21.5 1.1705 21.428 0.5 20.6 0.5H1.4C0.572 0.5 0.5 1.1705 0.5 2C0.5 2.8295 0.572 3.5 1.4 3.5Z" fill="black"/>
</svg>
