<svg width="16" height="16" viewBox="0 0 16 16" fill="none" xmlns="http://www.w3.org/2000/svg">
<path fill-rule="evenodd" clip-rule="evenodd" d="M14.1343 0.307248C14.5418 -0.102416 15.2025 -0.102416 15.61 0.307248C16.0175 0.716913 16.0175 1.38111 15.61 1.79077L9.4757 7.95758L15.6944 14.2092C16.1019 14.6189 16.1019 15.2831 15.6944 15.6928C15.2869 16.1024 14.6262 16.1024 14.2187 15.6928L8 9.4411L1.78133 15.6928C1.37383 16.1024 0.713131 16.1024 0.305628 15.6928C-0.101876 15.2831 -0.101876 14.6189 0.305628 14.2092L6.5243 7.95758L0.390024 1.79077C-0.0174799 1.38111 -0.0174799 0.716913 0.390024 0.307248C0.797527 -0.102416 1.45822 -0.102416 1.86573 0.307248L8 6.47405L14.1343 0.307248Z" fill="#373A3C"/>
</svg>
