<svg width="22" height="22" viewBox="0 0 22 22" fill="none" xmlns="http://www.w3.org/2000/svg">
<path d="M15.2308 9.30769C15.2308 7.67708 14.6512 6.28225 13.4922 5.1232C12.3331 3.96414 10.9383 3.38461 9.30769 3.38461C7.67708 3.38461 6.28225 3.96414 5.1232 5.1232C3.96414 6.28225 3.38462 7.67708 3.38462 9.30769C3.38462 10.9383 3.96414 12.3331 5.1232 13.4922C6.28225 14.6512 7.67708 15.2308 9.30769 15.2308C10.9383 15.2308 12.3331 14.6512 13.4922 13.4922C14.6512 12.3331 15.2308 10.9383 15.2308 9.30769ZM22 20.3077C22 20.766 21.8325 21.1627 21.4976 21.4976C21.1627 21.8325 20.766 22 20.3077 22C19.8317 22 19.4351 21.8325 19.1178 21.4976L14.5829 16.976C13.0052 18.0689 11.2468 18.6154 9.30769 18.6154C8.04728 18.6154 6.84195 18.3708 5.69171 17.8816C4.54147 17.3924 3.54988 16.7314 2.71695 15.8984C1.88401 15.0655 1.22296 14.0739 0.733774 12.9237C0.244592 11.7734 0 10.5681 0 9.30769C0 8.04727 0.244592 6.84195 0.733774 5.69171C1.22296 4.54147 1.88401 3.54988 2.71695 2.71695C3.54988 1.88401 4.54147 1.22295 5.69171 0.733772C6.84195 0.244589 8.04728 0 9.30769 0C10.5681 0 11.7734 0.244589 12.9237 0.733772C14.0739 1.22295 15.0655 1.88401 15.8984 2.71695C16.7314 3.54988 17.3924 4.54147 17.8816 5.69171C18.3708 6.84195 18.6154 8.04727 18.6154 9.30769C18.6154 11.2468 18.0689 13.0052 16.976 14.5829L21.5108 19.1178C21.8369 19.4439 22 19.8405 22 20.3077Z" fill="black"/>
</svg>
