<svg width="23" height="14" viewBox="0 0 23 14" fill="none" xmlns="http://www.w3.org/2000/svg">
<path d="M22.3951 1.66071C22.3951 1.66071 22.2388 1.21429 21.2679 1.33705L18.0536 1.35938C17.808 1.32589 17.6295 1.42634 17.6295 1.42634C17.6295 1.42634 17.4397 1.52679 17.3504 1.77232C16.8259 3.12277 16.1563 4.28348 16.1563 4.28348C14.7277 6.71652 14.1473 6.85045 13.9129 6.6942C13.3661 6.34821 13.5112 5.28795 13.5112 4.52902C13.5112 2.16295 13.8683 1.1808 12.808 0.924106C12.4621 0.845981 12.2054 0.790178 11.3013 0.779018C10.1518 0.767856 9.1808 0.779018 8.63393 1.04688C8.26563 1.22545 7.98661 1.62723 8.15402 1.64955C8.36607 1.68304 8.84598 1.78348 9.10268 2.12946C9.10268 2.12946 9.3817 2.58705 9.42634 3.59152C9.54911 6.37054 8.97991 6.71652 8.97991 6.71652C8.54464 6.95089 7.78571 6.56027 6.66964 4.26116C6.66964 4.26116 6.02232 3.12277 5.52009 1.87277C5.4308 1.63839 5.25223 1.51562 5.25223 1.51562C5.25223 1.51562 5.05134 1.35938 4.76116 1.31473L1.70312 1.33705C1.23438 1.33705 1.06696 1.54911 1.06696 1.54911C1.06696 1.54911 0.899554 1.72768 1.0558 2.09598C3.4442 7.70982 6.16741 10.5223 6.16741 10.5223C6.16741 10.5223 8.65625 13.1228 11.4799 12.9442H12.7634C13.154 12.9107 13.3549 12.6987 13.3549 12.6987C13.3549 12.6987 13.5335 12.4978 13.5223 12.1295C13.5 10.4107 14.3036 10.154 14.3036 10.154C15.0848 9.90848 16.0893 11.817 17.1607 12.5536C17.1607 12.5536 17.9754 13.1116 18.5893 12.9888L21.4464 12.9442C22.9531 12.933 22.2388 11.683 22.2388 11.683C22.183 11.5826 21.8259 10.8125 20.1071 9.21652C18.3214 7.55357 18.5558 7.82143 20.721 4.94196C22.0379 3.18973 22.5625 2.1183 22.3951 1.66071Z" fill="white"/>
</svg>
